<svg width="1000" height="1000" viewBox="0 0 1000 1000" fill="none" xmlns="http://www.w3.org/2000/svg">
<path d="M515.241 0.280353C433.446 2.90481 381.602 17.054 324.585 51.9707C312.316 59.5017 289.942 75.1344 284.048 80.3833C280.56 83.35 279.477 87.4579 282.124 87.4579C282.966 87.4579 283.086 87.8002 282.364 88.4848C281.763 89.0554 275.388 89.74 268.05 90.0823C249.766 90.767 248.443 91.5657 250.849 99.6673C253.014 106.285 252.533 135.154 250.127 150.217C248.924 157.405 247.722 168.816 247.361 175.548C247 182.395 246.278 187.872 245.797 187.872C243.632 187.872 240.985 175.662 240.264 162.312C239.662 153.069 238.941 147.934 238.099 147.934C234.61 147.934 226.791 164.366 223.423 178.287C220.537 190.953 221.499 209.438 225.829 221.305C227.513 226.212 228.716 230.662 228.355 231.232C227.994 231.803 225.709 232.602 223.183 232.944C207.545 235.34 190.465 242.757 175.91 253.597C168.933 258.846 152.093 275.049 152.815 275.734C153.416 276.19 160.874 277.217 169.414 277.902C184.45 279.271 187.457 279.728 198.644 283.493C206.463 286.118 205.14 287.601 192.87 290.34C180.481 293.078 171.339 298.441 158.709 310.422C144.755 323.431 144.876 323.773 162.197 320.806C168.332 319.665 174.106 319.094 174.827 319.323C176.632 319.893 167.49 330.505 155.942 341.688C146.199 351.044 136.456 356.065 125.509 357.548C121.059 358.233 118.773 359.032 118.533 360.287C117.931 363.254 125.75 373.067 131.764 376.832C135.012 378.772 137.177 380.712 136.696 381.054C136.335 381.511 132.005 381.853 127.073 381.853C122.262 381.853 118.292 382.31 118.292 382.766C118.292 384.592 132.486 397.486 136.215 398.855C141.508 401.023 141.267 403.876 135.734 403.305C130.08 402.735 130.201 404.218 137.177 415.971C142.951 425.556 150.048 433.544 157.867 439.135C161.956 442.102 161.956 442.216 160.032 444.84C152.574 454.539 147.763 464.352 146.439 472.226C145.597 477.018 147.402 478.159 149.567 474.166C151.371 470.971 159.19 462.869 160.393 462.869C160.994 462.869 160.994 464.238 160.393 465.95C159.791 467.776 156.904 477.018 153.777 486.603C146.56 509.881 142.35 517.298 133.328 522.889C128.998 525.514 129.599 527.339 135.493 529.964C141.147 532.474 156.784 535.897 162.678 535.897C164.603 535.897 166.527 536.354 166.888 536.81C167.49 537.837 156.544 546.395 147.041 552.1C139.342 556.779 137.538 558.719 140.786 558.719C144.395 558.719 161.716 555.524 169.414 553.47C181.082 550.389 182.045 550.275 182.045 551.986C182.045 552.899 178.436 558.376 174.106 564.31C164.483 577.204 158.709 588.729 156.904 598.77C154.499 612.349 155.461 631.747 159.31 646.581C160.994 652.971 167.49 669.63 168.813 670.885C169.294 671.456 172.061 668.603 174.948 664.61C180.481 656.85 190.104 646.581 191.788 646.581C193.352 646.581 193.111 657.079 191.427 661.529C190.705 663.697 188.54 667.69 186.615 670.543C183.849 674.537 183.488 675.906 184.691 676.933C186.495 678.645 204.057 684.236 207.425 684.236C210.793 684.236 211.154 685.948 209.109 692.452C206.824 699.983 206.583 716.87 208.989 717.669C209.831 718.012 213.44 716.072 216.808 713.447C228.596 704.319 247 695.19 249.406 697.472C250.007 698.043 249.646 703.634 248.564 711.051C246.278 725.657 247.481 738.094 252.533 752.472C257.345 766.165 271.418 791.382 274.305 791.496C275.147 791.496 276.23 789.785 276.831 787.845C278.515 782.254 283.086 771.756 284.53 770.044C286.574 767.762 287.898 770.501 287.898 776.776C287.898 788.187 296.799 812.606 300.528 811.807C301.731 811.579 304.016 807.129 306.542 800.168C312.677 783.395 316.767 779.059 316.767 789.214C316.767 794.691 319.653 807.814 323.022 818.311C327.592 831.89 342.508 857.45 345.996 857.678C346.478 857.678 346.838 855.168 346.838 852.087C346.838 836.568 351.169 809.867 355.259 800.054C356.582 796.745 356.702 796.745 358.025 798.913C358.747 800.168 361.514 806.33 364.28 812.606C372.821 832.575 381.12 842.388 406.02 861.9C436.092 885.292 437.174 886.547 440.903 904.462C442.106 910.395 443.55 915.644 444.151 916.215C447.158 919.068 466.164 902.979 475.426 889.856C478.674 885.292 481.079 883.01 481.801 883.694C482.403 884.265 484.447 890.541 486.372 897.73C491.665 917.812 491.905 918.155 492.868 905.032C493.95 891.111 495.033 885.977 496.957 885.292C497.679 885.064 498.401 885.52 498.401 886.433C498.401 888.829 510.55 907.086 518.609 916.785C530.758 931.391 554.695 952.387 559.146 952.387C562.033 952.387 568.649 947.366 582.963 934.244C594.871 923.29 605.577 910.395 614.599 896.132C618.448 890.084 621.936 885.406 622.417 885.863C622.898 886.433 623.981 892.367 624.703 899.327C626.627 916.443 626.988 916.557 630.717 902.066C635.168 885.178 635.649 883.923 637.092 883.923C637.934 883.923 641.062 887.118 643.949 890.997C652.85 902.979 668.247 917.014 672.577 917.014C674.021 917.014 675.103 914.503 676.547 907.315C677.148 904.12 678.832 898.186 680.155 893.964C683.042 885.292 687.613 880.728 709.505 863.954C725.383 851.859 733.322 844.784 739.577 837.139C746.313 828.809 753.892 815.345 756.778 806.216C759.786 796.745 762.191 796.175 764.597 804.276C767.364 813.405 768.807 822.305 770.371 840.334C771.213 849.234 772.175 856.879 772.656 857.108C774.22 858.02 785.888 839.992 790.94 828.923C795.752 818.311 801.525 797.658 801.525 790.698C801.525 779.401 805.134 782.254 811.148 798.457C814.276 806.787 816.922 812.035 817.885 812.035C822.095 812.035 830.274 788.986 830.515 776.32C830.515 773.696 830.996 770.615 831.477 769.36C832.319 767.42 832.439 767.534 834.364 770.158C835.447 771.87 836.409 773.467 836.409 773.924C836.409 775.978 842.904 791.496 843.746 791.496C846.754 791.496 860.707 766.507 865.518 752.7C871.533 735.698 872.134 722.348 868.165 700.439C867.563 697.358 867.804 696.788 869.849 696.788C873.457 696.788 890.298 705.232 897.154 710.366C906.777 717.783 908.461 718.696 909.784 717.897C911.709 716.756 911.228 697.929 909.063 691.767C907.98 688.8 907.499 685.948 908.1 685.491C908.702 685.035 913.032 683.78 917.603 682.638C933.962 678.759 937.09 675.792 931.316 669.973C930.113 668.717 928.309 665.408 927.226 662.67C925.301 657.307 924.7 646.581 926.504 646.581C928.068 646.581 937.691 657.079 942.743 664.267C945.149 667.69 947.675 670.771 948.276 671.114C949.72 671.912 951.163 669.288 954.772 659.018C959.944 643.956 961.628 635.969 962.35 622.048C963.553 598.085 960.425 587.473 945.75 566.706C936.849 554.04 935.045 550.731 937.21 550.731C937.691 550.731 942.142 551.872 947.073 553.127C955.614 555.295 973.537 558.604 976.905 558.719C980.273 558.719 977.867 556.208 969.687 551.188C961.267 546.053 951.765 538.75 950.923 536.81C950.682 536.354 952.847 535.897 955.734 535.897C964.635 535.783 989.174 529.051 989.174 526.655C989.174 526.198 986.528 524.03 983.4 521.748C975.221 516.157 970.289 507.142 964.996 488.087C963.673 483.522 961.267 475.877 959.463 471.199C957.779 466.52 956.576 462.527 956.817 462.298C957.779 461.5 964.034 467.547 967.522 472.682C970.409 477.018 971.251 477.703 971.853 475.991C973.416 472.112 965.718 453.512 959.583 446.552C958.02 444.726 956.696 442.9 956.696 442.444C956.696 441.987 959.824 439.249 963.673 436.396C970.529 431.375 978.468 421.448 984.242 410.608C987.61 404.446 987.009 402.621 982.077 403.305C977.025 403.99 977.025 400.909 982.077 398.969C985.806 397.486 1000 384.82 1000 382.88C1000 382.31 996.03 381.853 991.219 381.853C986.287 381.853 982.077 381.511 981.596 381.169C981.235 380.826 983.4 378.886 986.528 376.832C992.542 373.067 1000.36 363.254 999.759 360.287C999.519 359.032 997.233 358.233 992.783 357.548C984.483 356.407 973.296 351.501 966.56 345.91C960.425 340.889 941.901 320.121 942.863 319.323C943.104 318.98 949.359 319.665 956.696 320.806C963.914 321.947 970.289 322.632 970.65 322.175C971.853 321.034 954.531 304.603 947.073 299.696C940.217 295.36 926.023 289.427 922.174 289.427C918.204 289.427 914.596 288.057 914.596 286.574C914.596 285.205 920.851 282.58 929.511 280.412C932.158 279.728 941.059 278.587 949.359 277.902C957.659 277.217 964.996 276.19 965.477 275.734C966.921 274.479 944.066 254.396 933.842 248.12C919.768 239.334 911.107 235.911 897.274 233.514C894.027 232.944 890.899 232.031 890.298 231.461C889.696 230.89 890.659 226.554 892.583 221.419C895.59 213.203 895.951 211.035 895.951 196.43C895.831 184.563 895.35 178.515 893.786 173.152C891.14 164.48 885.246 152.499 881.637 148.847L879.111 146.223L878.389 160.03C877.667 173.608 874.781 186.731 872.495 186.731C871.773 186.731 871.292 183.536 871.292 179.542C871.172 175.662 870.45 166.762 869.488 159.916C865.759 133.329 865.037 125.227 865.759 113.588C866.12 106.856 867.082 99.7814 867.924 97.7275C869.007 94.5325 868.886 93.7337 867.202 92.4786C864.436 90.6529 854.572 89.2836 844.588 89.5118C836.89 89.74 833.161 88.4848 837.01 87.0015C840.138 85.8604 839.055 84.2629 830.755 77.6447C799.36 52.9977 760.989 31.5456 728.751 20.5913C699.522 10.6641 674.502 5.52926 639.258 2.33427C621.335 0.850887 541.103 -0.6325 515.241 0.280353ZM616.162 17.1681C617.485 17.9669 616.764 19.108 612.554 22.5312C606.66 27.4377 607.862 28.0083 616.884 24.8133C637.333 17.6246 666.803 19.108 703.251 29.2635C711.31 31.5456 709.145 32.8008 690.861 35.9958C680.757 37.8215 664.157 42.9563 662.593 44.6679C661.992 45.3525 660.548 46.3795 659.586 46.7218C658.624 47.1782 659.105 47.2923 660.789 46.95C668.848 45.3525 700.484 43.9832 715.52 44.6679C742.344 45.8089 766.883 51.7425 772.656 58.3607C774.581 60.6428 774.822 60.5287 765.439 62.1262C752.929 64.4083 735.367 73.8792 735.367 78.2152C735.367 80.0409 737.292 79.8127 747.997 76.5036C761.59 72.2817 789.497 71.1406 789.497 74.792C789.497 75.2485 786.971 76.9601 783.843 78.4434C776.385 82.0949 771.333 86.0886 765.319 92.7068C759.545 99.325 755.215 106.856 757.139 106.856C757.861 106.856 762.312 104.574 767.123 101.721C781.798 93.0491 806.217 83.5782 808.502 85.6322C808.863 86.0886 808.502 88.0284 807.66 90.0823C803.209 100.01 800.202 109.823 799.12 117.354C796.955 132.872 795.511 151.7 796.594 153.412C797.917 155.58 802.608 149.874 807.059 140.517C812.111 130.02 818.967 120.207 825.342 114.615C831.477 109.138 840.258 105.259 844.949 105.943C847.836 106.285 847.836 106.4 847.235 116.555C846.633 128.08 846.513 132.644 846.994 162.997C847.114 174.864 847.716 184.449 848.197 184.449C849.159 184.449 854.572 173.951 856.136 169.272C856.978 166.648 858.782 166.876 859.624 169.729C860.466 172.924 858.542 189.469 856.377 197.229C852.407 211.264 845.07 227.353 836.168 241.388C827.026 255.765 832.078 254.168 851.685 236.367C858.542 230.091 866.842 221.761 870.089 217.882C877.186 208.982 878.389 210.465 874.179 223.017C872.014 229.407 869.488 233.971 865.518 238.649C857.7 247.892 857.459 248.12 858.301 249.033C858.782 249.489 862.632 248.919 866.962 247.892C877.788 245.382 889.696 245.496 899.079 248.462C911.829 252.456 924.82 259.759 922.054 261.356C921.332 261.699 917.002 261.585 912.551 260.9C907.98 260.215 900.041 259.759 894.748 259.987C883.201 260.444 881.276 262.612 891.621 263.525C898.838 264.095 907.499 267.29 908.221 269.458C908.341 270.029 905.815 272.083 902.447 273.794C895.831 277.217 876.705 292.279 867.082 301.522C859.865 308.483 853.851 315.329 844.228 327.538C834.965 339.291 827.748 344.654 816.802 347.735C804.292 351.273 791.06 358.69 788.053 363.938C786.61 366.563 785.768 366.677 804.533 362.113C823.057 357.548 839.055 356.065 850.482 357.663C855.655 358.461 861.068 359.374 862.632 359.716C866.962 360.858 865.879 357.777 859.865 352.185C855.655 348.192 854.813 346.937 855.895 345.567C858.301 342.829 866.481 339.52 874.781 337.808C889.817 334.841 901.845 335.982 917.122 342.03C926.504 345.681 927.948 344.54 921.572 338.493C909.905 327.652 883.922 322.974 866.481 328.679C858.542 331.304 859.504 328.565 869.729 319.094C881.757 308.026 890.538 303.69 900.763 303.69C904.732 303.69 909.664 304.147 911.589 304.603L915.197 305.63L910.987 307.684C908.702 308.939 904.612 309.852 901.845 309.966C896.913 309.966 891.621 312.476 893.305 314.074C893.786 314.53 897.876 315.785 902.326 316.926C914.836 319.893 921.693 323.431 929.632 331.076C939.495 340.318 948.757 352.185 947.194 353.669C946.472 354.353 943.585 354.239 939.014 353.441C935.165 352.756 929.03 351.615 925.422 351.044C921.813 350.36 916.641 349.333 913.994 348.762C903.048 346.366 902.567 346.366 902.567 348.192C902.567 351.615 921.813 358.347 940.458 361.428C944.066 361.999 949.96 362.911 953.569 363.482C957.057 364.053 962.23 365.194 964.996 365.878C969.206 366.905 969.808 367.476 968.725 368.731C964.275 373.866 937.691 376.148 920.61 372.839C916.28 372.04 910.386 370.899 907.379 370.443C898.718 368.731 893.786 368.617 893.305 369.986C893.064 370.671 898.958 374.094 906.416 377.517C925.662 386.417 927.226 386.988 939.856 389.841C946.111 391.324 951.765 392.807 952.366 393.264C954.291 394.975 946.111 397.828 939.495 397.828C934.924 397.828 930.353 396.801 924.098 394.291C903.77 386.189 896.432 384.135 888.253 384.135C877.788 384.135 875.262 385.619 882.84 387.444C890.057 389.156 895.229 391.666 912.31 401.936C930.714 412.776 935.165 414.944 945.871 417.911C957.057 420.992 957.538 422.932 948.276 427.838C939.976 432.288 932.158 432.517 924.219 428.637C921.212 427.268 910.025 420.193 899.319 413.004C888.493 405.816 877.066 398.969 873.698 397.714C866.721 395.204 854.813 394.975 848.438 397.143L844.228 398.627L848.438 400.453C850.723 401.48 856.136 403.762 860.466 405.587C864.797 407.413 871.533 411.407 875.502 414.488C884.043 421.22 902.206 433.886 914.115 441.531C926.985 449.633 936.127 459.103 941.42 469.944C942.623 472.226 945.871 481.012 948.878 489.57C951.765 498.014 955.614 508.055 957.298 511.935C961.748 521.976 961.388 522.433 951.283 519.922C928.91 514.559 905.694 500.068 892.703 483.522C890.538 480.67 888.012 478.273 887.29 477.931C883.682 476.904 886.569 492.765 893.064 510.451C899.199 526.769 905.815 538.065 928.429 570.7C935.766 581.312 942.382 591.924 943.104 594.092C946.953 605.274 947.675 624.786 944.668 629.579C943.344 631.519 943.104 631.29 940.578 623.189C938.172 615.886 931.195 601.509 925.903 592.951C922.054 586.789 914.355 572.297 911.829 566.364C909.664 561.457 907.379 560.772 907.379 565.109C907.379 570.129 914.596 588.615 920.009 597.515C925.903 607.214 932.158 623.645 931.075 626.612C929.752 629.693 921.091 624.444 919.287 619.537C916.039 609.952 892.824 590.783 882.238 588.843C878.389 588.044 878.269 588.158 879.712 590.668C880.554 592.152 883.201 595.347 885.727 597.971C891.741 604.247 899.56 615.43 902.808 622.162C905.454 627.867 911.228 664.838 909.784 667.006C908.461 669.288 902.567 669.516 895.229 667.69C877.908 663.583 863.113 651.373 851.565 631.975C849.159 627.981 847.235 623.874 847.235 622.847C847.235 621.477 846.874 621.363 845.791 622.39C844.709 623.417 844.829 625.699 846.032 631.975C849.28 649.89 857.7 664.381 869.729 673.053C883.802 683.209 885.486 686.518 874.299 681.954C863.594 677.618 852.768 669.744 838.333 655.709C830.515 648.178 823.779 642.245 823.418 642.587C822.095 643.842 826.305 653.541 836.289 672.141C848.197 694.163 850.242 699.526 852.287 714.018C853.49 722.804 853.369 725.999 851.565 737.067C850.362 744.028 848.678 750.874 847.716 752.015C845.791 754.64 846.152 754.868 841.822 747.565C834.845 735.926 828.47 728.053 813.674 712.42C794.789 692.566 790.218 686.86 783.603 674.537C780.716 669.174 778.069 664.952 777.829 665.294C776.987 666.093 779.633 680.014 781.919 687.089C784.565 695.304 789.858 704.889 797.195 714.931C809.705 731.933 814.757 743.457 814.757 754.868C814.757 761.372 812.592 760.916 806.337 753.271C803.57 749.847 798.759 745.055 795.872 742.773C790.098 738.208 778.19 724.173 771.814 714.474C768.446 709.339 763.394 699.983 756.057 685.377L753.531 680.242V684.692C753.41 687.089 754.012 691.082 754.613 693.479C755.335 695.989 756.418 700.097 757.139 702.721C759.906 713.561 769.77 734.785 776.746 745.055C786.249 759.204 786.49 759.889 786.369 774.951C786.249 788.301 784.204 798.343 781.678 799.141C780.956 799.256 778.911 795.718 776.987 791.154C775.062 786.704 772.055 780.884 770.251 778.374C761.951 766.849 751.847 744.827 741.743 716.414C738.014 705.916 734.405 696.674 733.804 695.875C730.075 691.425 730.075 705.346 733.683 727.597C736.45 744.941 738.495 752.472 744.269 766.507C747.276 773.924 747.276 774.038 745.471 784.536C742.705 800.853 736.57 814.888 726.586 827.44C721.173 834.286 709.385 844.328 692.184 856.537C687.132 860.188 678.832 867.263 673.78 872.398C665.721 880.271 664.398 881.184 664.398 878.788C664.398 875.365 672.818 859.846 680.877 848.55C695.071 828.581 699.642 815.459 699.522 795.832C699.522 784.308 698.92 780.884 695.312 769.017C688.696 747.223 688.094 744.142 688.215 727.939C688.335 716.756 687.974 712.763 687.012 712.991C685.448 713.561 684.365 716.528 681.839 727.026C678.952 738.551 679.674 747.451 685.328 772.669C690.019 793.436 686.17 809.753 671.855 828.581C664.277 838.736 649.121 854.255 646.836 854.255C642.746 854.255 629.635 833.145 624.703 818.882C619.41 803.363 620.012 804.39 618.688 806.33C617.967 807.243 617.485 811.351 617.485 815.459C617.365 823.788 614.478 851.174 612.794 858.249C607.622 881.298 595.473 900.696 572.859 921.806C560.108 933.673 559.747 933.901 554.094 929.337C527.15 907.657 510.67 883.238 505.137 856.765C503.453 848.436 500.686 823.674 501.047 820.023C501.047 819.11 501.047 815.573 501.047 812.264C500.807 804.733 497.92 804.048 495.995 811.123C493.83 819.567 489.86 829.151 486.011 835.884C480.839 844.784 473.381 854.255 471.456 854.255C469.412 854.255 455.939 840.676 447.76 830.407C441.745 822.761 434.769 810.21 432.363 802.793C429.957 795.376 430.799 779.401 434.167 766.963C439.941 746.082 438.257 719.495 430.679 713.105C428.514 711.165 428.514 711.393 429.476 717.327C432.002 733.53 429.957 747.907 421.417 773.81C417.808 784.764 417.568 805.76 420.815 816.6C423.943 826.641 430.438 839.079 439.46 851.973C448.121 864.41 453.894 875.365 453.894 879.13C453.894 881.526 453.173 881.07 448.241 875.821C441.385 868.747 429.957 859.276 413.117 846.838C406.261 841.817 397.72 834.4 394.111 830.293C381.602 816.143 371.377 790.698 372.46 776.206C372.7 772.44 374.625 764.681 376.79 758.976C381.481 746.196 384.97 729.879 386.774 712.078C389.059 689.143 386.173 688.8 378.354 711.051C367.287 742.43 357.905 763.54 349.004 776.662C344.433 783.623 340.102 791.953 338.899 796.517C338.057 799.712 336.734 800.282 335.291 798.229C333.727 795.832 331.201 780.656 331.201 773.696C331.201 763.997 334.088 755.895 341.065 745.397C351.891 729.308 362.356 703.976 364.28 689.371C365.002 683.323 364.882 682.753 363.198 684.122C362.115 684.921 361.273 686.062 361.273 686.632C361.273 687.089 359.228 691.539 356.822 696.445C349.365 711.279 335.531 730.335 324.224 741.061C318.451 746.538 312.075 753.042 310.03 755.439C304.858 761.714 303.054 760.345 304.016 750.646C305.099 740.605 309.309 731.476 318.932 717.897C328.675 704.319 332.645 697.472 335.892 688.23C338.539 680.356 341.546 664.039 340.343 662.898C339.982 662.556 339.621 663.126 339.621 664.267C339.621 665.408 338.899 667.234 338.057 668.147C337.095 669.174 335.652 671.798 334.81 673.966C333.847 676.134 330.84 681.269 328.074 685.377C323.142 692.68 318.811 697.586 299.205 718.126C289.702 728.053 283.206 736.497 276.591 747.223C272.982 753.385 270.215 754.183 269.253 749.505C268.772 747.793 267.93 744.142 267.088 741.289C265.163 734.101 265.284 711.051 267.328 704.775C268.291 701.922 269.734 697.358 270.696 694.506C271.659 691.653 276.951 681.155 282.485 671.114C291.506 654.682 296.197 643.728 294.754 642.473C294.513 642.131 288.379 647.608 281.161 654.682C265.885 669.402 256.503 676.477 246.158 680.927C233.046 686.632 233.167 684.578 246.639 674.651C257.705 666.435 264.441 657.193 269.133 644.07C271.659 636.996 273.343 626.156 272.02 625.357C271.418 625.015 270.817 624.9 270.576 625.015C270.456 625.243 267.93 629.465 265.043 634.371C253.856 653.199 234.129 667.462 218.131 668.261C207.425 668.832 208.027 669.516 208.989 658.22C210.553 639.963 213.44 625.813 216.928 619.081C218.853 615.544 224.747 607.442 230.039 600.938C235.332 594.434 239.422 588.729 239.061 588.272C237.497 585.762 215.364 598.998 207.786 606.986C204.659 610.295 200.93 615.544 199.246 618.739C197.201 622.847 195.156 625.015 192.149 626.384C188.42 628.095 187.939 628.095 187.217 626.498C186.134 623.645 192.51 606.872 198.283 597.515C204.057 588.158 210.914 570.243 210.914 564.424C210.914 559.289 209.109 561.001 204.298 571.042C201.892 575.835 196.238 586.218 191.668 594.092C187.097 601.965 182.526 610.637 181.443 613.49C180.36 616.342 179.037 619.423 178.556 620.336C177.955 621.363 177.113 623.759 176.632 625.813C175.549 630.72 172.903 630.492 171.94 625.129C170.737 618.168 171.098 610.751 173.023 601.965C175.188 592.266 178.316 585.99 186.615 575.036C194.554 564.538 204.538 549.704 209.59 541.032C211.756 537.267 214.282 533.387 215.124 532.474C216.808 530.534 224.265 513.989 227.032 505.887C230.52 496.074 234.009 478.616 232.806 477.475C231.723 476.448 228.836 479.186 220.537 489.456C212.357 499.383 190.705 512.619 173.504 517.982C159.07 522.433 157.987 522.661 157.987 519.922C157.987 518.553 159.07 515.472 160.513 512.962C161.836 510.337 165.685 500.524 168.933 491.053C179.639 460.473 184.931 453.284 207.425 439.363C215.364 434.456 231.362 423.16 243.391 414.031C250.608 408.44 258.307 404.56 266.005 402.392C273.824 400.11 274.546 398.399 268.17 396.801C253.134 393.264 244.835 395.774 220.897 411.749C188.179 433.429 184.33 434.685 170.377 427.952C160.513 423.16 160.874 421.106 172.422 417.911C183.127 414.944 187.578 412.776 205.982 401.936C222.221 392.237 227.634 389.498 234.61 387.559C241.707 385.505 239.903 384.135 230.28 384.135C221.86 384.135 214.642 386.189 194.194 394.291C187.939 396.801 183.368 397.828 178.797 397.828C172.422 397.828 164.603 395.204 165.685 393.378C166.046 392.922 169.414 391.895 173.264 391.096C188.901 387.787 204.779 381.853 220.055 373.637C229.318 368.731 227.152 367.476 213.8 369.872C207.906 370.899 200.449 372.268 197.08 372.953C187.457 375.007 165.685 374.664 157.746 372.268C154.018 371.241 150.289 369.644 149.567 368.731C148.484 367.476 149.086 366.905 153.416 365.764C156.303 365.079 161.596 364.053 165.204 363.482C186.495 360.173 201.651 356.521 210.072 352.528C215.484 350.017 218.011 346.252 213.68 347.165C212.477 347.393 205.621 348.648 198.283 350.017C191.066 351.387 182.405 352.984 179.158 353.555C170.978 355.038 167.73 353.441 171.58 349.675C172.422 348.876 176.15 344.54 179.879 340.09C191.908 325.827 199.246 321.034 215.725 317.041C220.657 315.785 224.867 314.302 225.107 313.503C225.709 311.906 220.296 309.966 215.124 309.966C212.838 309.966 209.23 308.939 207.185 307.798L203.335 305.516L206.824 304.603C214.402 302.663 224.386 303.576 231.844 306.999C242.549 312.02 265.163 333.7 255.781 329.935C251.691 328.337 239.181 326.055 234.129 325.941C226.671 325.941 212.838 328.908 206.343 332.103C200.328 335.069 191.908 342.486 193.231 343.742C193.712 344.198 197.682 343.285 202.133 341.574C217.89 335.868 227.032 334.955 241.587 337.466C250.248 338.949 261.194 343.513 262.156 345.91C262.757 347.165 261.314 349.447 257.946 352.642C252.413 358.005 251.571 360.743 255.781 359.831C257.224 359.488 262.637 358.575 267.81 357.777C279.237 356.065 295.355 357.663 313.759 362.113C333.126 366.791 331.803 366.677 329.397 363.14C326.029 358.233 313.639 351.273 302.934 348.192C290.183 344.426 284.65 340.432 273.102 326.283C260.352 310.651 248.804 298.441 240.985 292.508C237.377 289.655 232.084 285.319 229.318 282.809C226.551 280.298 221.138 276.647 217.289 274.593C213.44 272.539 210.072 270.599 209.831 270.485C209.59 270.257 210.072 269.344 210.793 268.431C212.718 266.263 223.784 263.182 229.558 263.182C232.565 263.182 233.768 262.726 233.407 261.699C232.926 260.101 214.763 259.759 203.456 261.242C192.63 262.498 194.073 259.531 207.305 253.027C221.258 246.18 236.896 244.24 250.608 247.778C262.276 250.745 262.878 249.832 254.939 241.274C248.924 234.656 245.556 228.722 242.91 220.05C240.143 210.807 241.587 209.78 247.361 216.741C259.269 231.232 285.372 253.94 286.454 250.745C286.695 250.06 284.89 246.066 282.364 241.73C274.185 228.037 266.607 212.519 263.96 204.645C257.826 185.59 255.661 156.036 261.314 168.816C266.005 179.086 267.449 181.938 269.253 183.308C270.215 184.106 271.057 184.334 271.057 183.764C271.298 179.77 271.057 112.447 270.817 109.709C270.456 106.285 270.576 106.285 276.109 106.514C287.296 106.856 299.084 117.81 310.03 138.235C313.759 145.082 317.849 151.814 319.172 152.955C321.338 155.123 321.578 155.123 322.3 153.183C323.142 151.015 319.894 119.18 317.729 109.138C317.007 105.715 314.842 99.5532 312.917 95.5595C309.188 87.4579 308.828 85.1757 311.113 85.1757C316.767 85.1757 343.952 96.7005 352.973 102.862C362.115 109.138 363.799 107.655 357.905 98.7544C352.733 91.2234 342.869 82.5513 334.81 78.6717C325.548 73.9933 327.111 72.5099 341.666 72.3958C353.334 72.2817 361.995 73.7651 374.865 77.8729C384.729 81.0679 384.128 80.9538 384.128 79.2422C384.128 75.1344 367.769 65.6635 355.86 62.8108C342.989 59.8441 343.952 60.3005 345.636 58.2466C348.643 54.8234 362.115 49.8027 374.264 47.5205C387.375 45.0102 417.207 43.9832 442.467 45.2384C450.045 45.5807 454.616 45.3525 454.616 44.6679C454.857 43.2986 438.137 37.9356 427.431 35.9958C415.282 33.8277 410.591 32.6867 410.591 31.7738C410.591 31.2033 413.117 30.0622 416.365 29.0352C421.657 27.3236 424.905 26.5249 438.618 23.5581C446.797 21.8465 463.277 20.1349 471.817 20.1349C481.44 20.249 496.115 22.6453 502.491 25.1556C510.309 28.2365 511.512 27.3236 505.618 22.4171C499.724 17.6246 499.965 17.1681 508.625 16.3694C518.008 15.3424 614.478 16.1412 616.162 17.1681Z" fill="black"/>
<path d="M585.971 48.6604C581.882 53.9093 578.995 64.0648 578.995 72.7369C578.995 80.7244 581.882 94.1889 584.528 99.2096C585.971 101.72 586.693 106.512 586.934 115.413C587.415 127.965 588.137 132.643 592.347 146.792C594.271 153.296 594.392 154.894 592.948 159.914C591.505 165.392 591.384 165.506 590.542 162.311C589.219 157.29 587.655 159.914 585.009 171.896C582.122 184.79 582.002 192.663 584.528 201.906L586.332 208.752L582.844 216.283C580.799 220.505 578.995 226.895 578.514 230.889C578.153 234.654 577.311 239.219 576.589 240.93C575.146 244.582 569.251 249.488 563.718 251.656C558.185 253.71 551.689 251.77 545.916 246.179C541.465 241.957 541.104 241.158 540.022 231.802C539.3 226.325 536.774 218.565 533.285 211.605C531.962 208.98 531.962 207.611 533.406 203.617C535.451 197.684 535.571 180.111 533.646 173.037C532.804 170.184 531.842 165.962 531.481 163.566C530.639 158.545 529.075 158.089 527.873 162.425C527.031 165.506 526.91 165.506 525.347 160.485C523.542 155.236 523.662 154.323 526.068 146.222C529.557 134.469 531.962 120.319 532.083 111.647C532.083 105.6 532.684 101.035 533.887 98.9814C536.293 94.4172 539.3 80.0397 539.3 72.6228C539.3 62.2391 534.128 47.9757 529.917 46.6064C528.835 46.2641 528.715 46.9488 529.677 49.2309C532.564 56.3055 529.797 79.5833 525.828 81.8654C524.865 82.436 522.941 81.1808 520.415 78.4422C516.926 74.4485 508.506 69.4278 507.303 70.5689C507.063 70.9112 508.506 73.5356 510.431 76.5024C515.483 84.0334 517.047 87.9131 518.851 97.9545C520.535 107.311 519.452 117.124 515.724 127.166L513.799 131.958L509.469 128.535C507.063 126.709 504.898 125.34 504.657 125.568C504.416 125.796 505.258 128.193 506.582 130.931C509.95 138.462 511.273 142.913 513.438 154.78C514.521 160.713 516.445 168.472 517.648 171.896C522.58 185.588 523.422 194.717 519.693 194.717C518.971 194.717 516.686 193.462 514.761 191.864C509.829 187.871 508.867 189.354 512.235 196.2C521.738 216.055 523.662 223.244 523.542 240.36C523.422 251.77 523.783 254.281 526.068 258.959C529.075 265.007 534.609 269.913 542.908 273.679C549.765 276.874 567.447 277.216 574.183 274.363C582.964 270.484 588.738 265.463 591.986 258.845C594.873 252.911 595.113 250.857 595.354 236.936C595.594 220.163 596.677 215.598 604.857 198.711C609.307 189.24 608.465 187.642 601.609 193.005C599.684 194.603 597.519 195.63 596.918 195.173C594.873 194.032 596.436 181.481 599.444 174.748C600.887 171.667 603.774 160.485 605.458 151.356C607.383 141.543 609.548 134.24 611.954 129.79C614.359 125.454 612.435 124.998 608.225 128.763C605.819 130.931 605.217 131.045 603.654 129.562C601.007 127.052 597.88 110.734 598.602 102.861C599.323 94.5313 603.173 83.4629 607.864 76.2742C609.788 73.4215 611.112 70.7971 610.871 70.5689C609.909 69.5419 600.526 75.2472 597.399 78.7845C593.309 83.4629 591.866 83.0065 589.339 76.046C587.174 70.1124 586.693 51.9695 588.738 48.5463C591.144 44.2102 589.219 44.2102 585.971 48.6604Z" fill="#5C5555"/>
<path d="M412.998 62.2408C412.998 62.8114 415.885 65.3217 419.374 67.718C435.853 79.5851 451.972 98.9832 445.235 98.8691C444.393 98.755 440.665 97.8421 437.056 96.587C430.2 94.3048 422.621 93.6202 422.621 95.2177C422.621 95.7882 427.072 99.4396 432.365 103.433C453.776 119.18 474.345 141.317 486.013 161.171L491.787 171.099L492.148 164.366C492.508 158.09 492.148 155.922 488.058 143.599C485.291 135.611 480.841 128.195 474.586 121.12C470.857 117.012 467.97 112.334 466.526 108.226C465.324 104.689 463.038 99.0973 461.474 95.7882C459.79 92.4791 458.708 89.2841 458.948 88.7136C459.429 87.3443 469.654 91.338 476.39 95.6741C484.81 101.037 486.133 99.7819 480.239 92.2509C472.902 82.6659 454.377 72.5104 433.447 66.4628C427.794 64.7512 421.539 62.9255 419.494 62.3549C414.923 60.9857 412.998 60.8716 412.998 62.2408Z" fill="black"/>
<path d="M690.862 64.5236C666.323 71.37 646.717 81.6396 638.537 91.681C631.56 100.353 632.883 100.924 644.431 94.3055C652.49 89.6271 659.587 87.345 659.587 89.3989C659.587 89.9694 658.264 93.0503 656.7 96.1312C655.137 99.2121 652.971 104.461 651.889 107.77C650.806 111.307 647.919 116.214 644.792 119.751C636.853 128.88 633.365 134.585 629.997 144.17C626.869 153.07 624.704 169.616 626.629 169.616C627.23 169.616 629.756 165.85 632.162 161.286C641.424 144.512 661.993 122.033 684.968 104.005C690.862 99.4403 695.192 95.4466 694.832 94.9901C693.388 93.6208 687.253 94.3055 680.998 96.5876C677.51 97.8428 673.902 98.8698 673.18 98.8698C666.805 98.8698 680.397 81.7537 695.914 70.1149C709.386 60.0735 708.905 59.5029 690.862 64.5236Z" fill="black"/>
<path d="M404.216 97.3865C403.855 97.8429 404.817 101.152 406.261 104.689C407.824 108.112 409.388 113.019 409.869 115.529L410.832 119.98L403.133 113.019C395.315 105.944 385.571 99.3263 384.489 100.467C383.647 101.266 387.015 106.173 391.706 111.079C397.359 116.899 408.185 131.162 408.185 132.76C408.185 134.813 407.824 134.699 399.404 131.048C391.946 127.739 385.331 125.799 385.331 126.712C385.331 127.054 391.465 133.102 398.923 140.176C406.381 147.251 416.485 157.977 421.297 163.911L430.198 174.751L429.476 164.481C428.514 151.815 424.184 132.189 419.853 121.007C416.124 111.307 405.539 95.3325 404.216 97.3865Z" fill="black"/>
<path d="M709.506 101.265C703.011 108.796 695.553 126.369 692.305 142.229C688.817 159.117 688.336 162.655 688.697 167.903L689.058 173.609L697.478 163.339C702.049 157.634 712.032 147.25 719.37 140.061C726.828 132.987 732.963 126.939 732.963 126.597C732.963 125.57 727.309 127.281 719.37 130.819C715.04 132.759 711.19 134.242 710.83 134.242C707.943 134.242 713.596 125.798 726.708 110.85C731.639 105.259 735.007 100.466 734.286 100.238C732.241 99.5535 724.663 104.688 715.401 112.79C707.702 119.636 707.341 119.865 707.943 116.555C708.304 114.616 709.988 109.709 711.792 105.373C715.16 97.0432 714.438 95.788 709.506 101.265Z" fill="black"/>
<path d="M337.939 131.733C338.66 132.19 342.51 136.526 346.72 141.546C354.779 151.131 359.35 158.891 361.996 167.22C363.68 172.583 364.282 183.538 362.959 184.793C362.477 185.135 360.192 183.994 357.786 182.168C352.734 178.289 344.073 175.893 341.186 177.376C339.502 178.289 340.344 179.544 346.72 185.706C355.621 194.492 366.327 208.983 373.303 221.763C381.844 237.852 384.009 232.489 377.754 210.695C376.431 206.017 375.468 200.311 375.589 198.143C375.709 195.975 375.95 189.015 376.07 182.739C376.31 171.785 376.07 170.986 372.221 163.683C369.935 159.461 365.605 153.071 362.357 149.306C356.343 142.231 341.547 130.82 338.42 130.82C337.337 130.82 337.097 131.163 337.939 131.733Z" fill="black"/>
<path d="M773.861 133.786C759.547 143.257 746.917 158.205 743.308 170.072C741.023 177.375 740.782 190.155 742.827 195.518C744.03 198.713 743.909 200.31 741.744 206.358C738.737 214.688 735.97 229.408 737.173 231.233C738.376 233.059 739.699 231.69 743.549 224.615C753.532 206.016 761.111 195.518 771.335 186.161C777.71 180.342 778.793 178.06 775.665 176.805C773.139 175.892 763.757 179.429 759.427 182.966C756.299 185.477 755.698 185.591 755.096 183.879C753.653 180.456 755.577 167.904 758.585 161.058C760.269 157.292 765.08 149.875 769.29 144.626C779.996 131.162 780.236 130.82 779.154 130.82C778.552 130.934 776.147 132.189 773.861 133.786Z" fill="black"/>
<path d="M295.837 156.605C294.514 161.626 296.318 174.177 299.325 181.024C300.889 184.447 303.295 190.951 304.618 195.401C305.941 199.851 307.986 204.187 308.948 204.986C310.512 206.241 310.753 205.785 310.753 202.362C310.753 197.113 312.557 196.086 316.526 199.167C318.331 200.536 321.699 202.476 323.984 203.617C326.27 204.644 328.555 206.013 329.036 206.698C329.638 207.382 329.999 207.268 329.999 206.47C329.999 205.214 312.196 179.426 307.745 174.177C307.024 173.264 304.738 168.814 302.934 164.478C298.483 154.095 296.92 152.383 295.837 156.605Z" fill="black"/>
<path d="M819.809 155.007C818.967 155.806 818.366 156.833 818.366 157.403C818.366 160.712 810.547 174.291 801.285 186.957C789.737 202.818 788.414 204.986 790.82 204.986C792.383 204.986 795.03 203.502 801.886 198.938C805.735 196.314 807.54 197.227 807.54 201.677C807.54 206.127 809.585 205.899 811.629 201.22C815.599 192.206 821.854 171.895 822.576 165.619C823.538 157.746 822.215 152.725 819.809 155.007Z" fill="black"/>
<path d="M486.974 207.839C487.455 214.458 487.455 219.821 486.974 219.821C486.493 219.821 483.726 217.767 480.96 215.371C473.141 208.638 459.909 202.705 459.909 206.014C459.909 206.584 461.954 209.551 464.48 212.632C478.674 229.748 490.102 250.63 485.29 250.63C484.689 250.63 481.922 249.374 479.035 247.891C465.322 240.816 465.082 243.327 478.073 255.536C488.658 265.349 496.597 276.189 500.567 286.003C502.01 289.426 503.093 292.05 503.093 291.708C503.213 291.366 503.694 287.03 504.416 282.009C505.378 274.706 505.258 270.941 503.694 263.181C502.612 257.818 501.288 246.065 500.807 236.937C500.326 227.808 499.364 218.223 498.642 215.485C496.958 208.296 490.102 195.858 487.936 195.858C486.373 195.858 486.252 197.456 486.974 207.839Z" fill="black"/>
<path d="M628.072 197.801C621.456 204.989 618.569 215.487 618.088 234.543C617.848 243.672 617.006 252.344 616.404 253.941C612.796 262.841 611.593 278.246 613.998 284.75C615.682 289.314 616.645 289.2 618.569 283.951C621.336 276.534 629.876 265.238 640.101 255.653C653.332 243.101 653.092 241.161 638.898 247.893C631.921 251.203 631.921 251.203 631.921 248.236C631.921 244.356 640.943 229.18 650.446 216.971C657.783 207.614 658.986 205.446 657.182 205.218C653.934 204.647 643.349 210.124 637.094 215.601C630.839 221.078 629.395 220.28 630.839 212.064C632.162 204.761 632.162 195.861 630.959 195.861C630.358 195.861 629.034 196.774 628.072 197.801Z" fill="black"/>
<path d="M396.157 198.94C396.037 205.558 404.457 217.083 421.057 232.944C434.529 245.952 439.942 253.597 443.43 265.008C446.077 273.452 444.393 275.163 438.619 269.915C433.687 265.464 423.823 258.162 420.095 256.222C414.682 253.597 418.651 259.303 435.972 279.271C445.956 290.796 455.94 302.321 458.226 304.831L462.436 309.395L461.714 304.375C461.353 301.636 460.15 297.871 459.068 295.817C457.745 293.535 456.782 287.715 456.181 278.587C455.098 263.068 453.053 253.597 448.843 244.697C444.753 236.139 439.581 231.118 427.913 223.701C414.682 215.372 404.938 207.156 397.721 198.256C396.398 196.658 396.278 196.772 396.157 198.94Z" fill="black"/>
<path d="M715.04 204.419C707.341 211.95 701.808 216.286 690.26 223.817C678.593 231.348 674.382 235.342 670.413 242.758C665.481 252.001 663.196 261.472 662.354 276.648C661.873 287.146 661.031 291.482 658.745 296.731C657.181 300.382 655.978 304.718 656.219 306.316C656.58 308.94 657.422 308.256 665 299.241C669.691 293.65 679.795 281.897 687.614 272.997C697.718 261.586 701.327 256.794 700.004 256.565C697.839 256.109 684.847 264.553 679.555 269.916C677.51 271.856 675.585 273.453 674.984 273.453C672.338 273.453 674.382 264.325 679.074 255.196C683.284 247.095 686.291 243.443 697.237 232.945C710.709 219.937 715.16 214.802 719.611 206.358C724.061 198.029 722.257 197.344 715.04 204.419Z" fill="black"/>
<path d="M823.177 214.002C819.569 217.539 814.156 222.332 811.149 224.614C806.097 228.494 805.856 228.836 808.021 230.319C810.186 231.917 810.186 232.145 807.54 236.823C806.097 239.562 805.255 241.958 805.495 242.186C805.856 242.529 807.901 241.045 810.186 238.992C820.17 229.977 830.996 214.002 830.154 209.552C829.914 207.84 828.47 208.753 823.177 214.002Z" fill="black"/>
<path d="M287.899 210.123C287.899 216.513 308.347 242.644 313.4 242.644C314.362 242.644 314.482 242.301 313.76 241.731C312.678 241.046 308.347 233.059 308.347 231.69C308.347 231.461 309.55 230.777 310.873 230.32C313.159 229.407 312.317 228.495 303.055 220.849C297.401 216.171 292.71 212.063 292.71 211.607C292.71 211.15 291.627 210.237 290.304 209.553C288.38 208.526 287.899 208.64 287.899 210.123Z" fill="black"/>
<path d="M298.723 242.299C298.723 242.869 301.249 247.091 304.257 251.77C307.384 256.448 312.316 265.12 315.203 270.94C319.052 278.585 321.458 281.894 323.503 282.693C329.878 284.861 355.138 301.064 358.386 304.943C360.311 307.111 363.318 312.246 365.122 316.354C366.926 320.462 370.896 327.422 374.023 331.758C377.031 336.209 379.316 340.088 378.835 340.431C377.391 341.8 371.738 336.893 365.844 329.248C362.476 324.912 359.348 321.375 358.747 321.375C356.582 321.375 357.785 327.536 361.513 334.953C366.084 343.968 374.384 352.069 386.052 358.688C393.149 362.91 398.081 365.078 412.395 370.555C413.718 371.011 416.966 372.038 419.612 372.723C427.07 374.891 438.377 380.026 443.91 384.019C449.684 388.013 457.383 397.37 457.503 400.337C457.503 402.961 456.902 402.961 452.331 399.652C446.437 395.43 434.287 390.181 425.506 388.127C421.176 387.1 415.162 385.046 412.275 383.449C405.9 380.026 405.058 381.965 410.591 387.443C414.801 391.55 413.718 391.893 403.855 388.812C393.871 385.731 389.059 383.563 383.286 379.341C380.399 377.401 377.752 376.146 377.271 376.602C376.79 377.059 377.512 379.455 378.955 381.965C382.203 387.557 380.88 387.671 370.415 382.764C366.084 380.71 362.115 379.569 361.634 380.026C361.153 380.596 363.679 383.449 367.287 386.53C377.873 395.658 398.803 404.444 418.77 408.21C436.934 411.633 447.038 417.338 454.135 428.179C457.022 432.515 459.067 437.764 457.864 437.764C457.623 437.764 454.015 435.481 449.925 432.743C445.835 429.89 440.903 427.266 438.979 426.809C435.972 426.125 435.731 426.239 436.814 428.179C437.535 429.434 439.941 432.629 442.347 435.481C444.632 438.22 446.316 440.73 446.076 440.959C445.835 441.301 442.948 440.046 439.821 438.22C428.995 432.286 416.365 426.353 414.32 426.353C412.275 426.353 417.688 431.602 432.603 444.039C437.174 447.691 441.384 451.685 441.986 452.712C442.948 454.537 442.708 454.651 439.099 453.51C420.454 447.919 418.77 447.691 397.359 447.691C385.812 447.805 374.745 448.261 372.7 448.946L369.092 449.973L373.903 450.772C389.541 453.396 412.034 459.216 411.192 460.585C410.952 461.041 406.742 461.954 401.93 462.753C397.119 463.438 390.864 464.579 387.977 465.149C385.21 465.834 378.715 466.29 373.663 466.29C365.242 466.29 360.912 465.491 353.214 462.753C348.162 460.927 350.086 464.35 356.461 468.686C364.761 474.506 372.219 475.647 405.659 476.56C435.25 477.359 436.693 477.473 443.309 480.325C451.368 483.749 460.51 489.454 464.6 493.562L467.607 496.529L463.156 496.871C460.751 497.099 458.706 497.441 458.706 497.784C458.706 498.126 461.954 501.207 465.923 504.63C469.893 508.167 472.9 511.476 472.539 511.933C472.298 512.389 468.569 513.074 464.48 513.53C455.338 514.329 439.821 519.122 431.641 523.572C428.393 525.283 422.499 528.478 418.77 530.418C414.921 532.472 411.794 534.64 411.794 535.211C411.794 536.922 426.589 534.982 441.866 531.331C448.481 529.619 462.194 528.592 457.383 530.076C455.578 530.646 448.842 533.956 442.347 537.379C435.731 540.802 428.273 544.225 425.627 545.024C418.65 547.078 418.169 548.105 423.221 550.045C429.957 552.783 442.347 552.327 452.812 549.132C464.359 545.48 468.93 544.682 471.937 545.594C474.704 546.393 475.185 548.447 472.659 548.447C471.697 548.447 467.246 550.843 462.675 553.696C452.571 560.314 448.121 562.14 441.866 562.14C436.212 562.14 435.731 563.509 440.302 566.362C444.873 569.214 458.225 568.872 467.727 565.563C478.674 561.798 481.56 561.113 481.56 562.14C481.56 564.08 472.419 571.268 465.683 574.692C458.465 578.343 457.262 579.941 460.63 581.196C463.638 582.223 478.072 579.37 485.049 576.289C492.507 573.094 492.386 573.094 492.386 574.92C492.386 575.719 489.259 579.256 485.53 582.679L478.553 588.955L483.605 589.297C489.259 589.64 494.431 587.586 500.686 582.451C502.851 580.625 504.896 579.37 505.257 579.712C506.34 580.739 502.851 593.519 499.964 598.996C495.033 608.695 496.717 610.293 505.137 603.789C507.903 601.621 510.55 599.795 510.911 599.795C512.354 599.795 511.512 606.87 509.708 610.179C507.061 615.085 499.604 622.616 497.559 622.616C496.476 622.616 495.995 621.932 496.476 620.905C496.957 619.536 496.717 619.421 494.912 620.22C493.469 621.019 492.266 623.757 491.304 628.322C489.86 635.054 490.101 637.679 493.108 650.801C494.07 655.365 496.476 653.653 500.686 645.324C504.295 638.249 509.467 632.772 511.031 634.255C511.392 634.598 512.234 637.793 512.956 641.444C513.918 646.465 513.918 651.714 512.715 661.641C510.67 680.354 512.956 681.61 518.609 664.836C519.331 662.668 520.293 658.674 520.774 655.936C521.616 651.143 521.616 651.143 523.421 653.653C524.984 655.593 525.345 659.245 525.225 671.112C525.225 684.576 524.623 689.027 520.173 709.338C518.609 716.07 513.918 731.018 508.986 744.711C503.092 761.028 500.927 769.015 500.807 775.063C500.807 781.567 502.13 782.138 504.415 776.432C507.182 769.586 512.835 761.37 514.038 762.511C514.519 763.082 514.399 769.7 513.798 777.231C512.474 793.548 513.557 825.27 515.722 831.888C516.564 834.513 518.008 838.849 518.85 841.701C520.774 848.32 526.067 860.985 528.352 864.294C531.36 868.973 532.322 865.321 530.277 856.421C527.991 845.581 526.668 817.511 527.871 800.395C528.713 786.93 529.916 784.192 531.239 792.293C531.6 794.689 533.404 802.563 535.088 809.751C536.772 816.94 538.457 824.357 538.817 826.069C539.299 827.78 540.141 829.035 540.983 828.807C541.825 828.579 542.546 821.504 543.148 807.926C543.869 786.245 545.313 774.607 548.32 763.538C550.485 755.323 556.139 742.2 557.823 741.059C559.988 739.576 564.318 745.509 567.085 753.611C572.137 768.559 574.182 782.138 575.024 805.415C575.505 822.531 576.107 828.009 577.309 828.009C578.151 828.009 579.114 826.297 579.595 824.243C579.956 822.303 580.798 819.336 581.399 817.739C582.361 814.886 583.444 810.322 586.932 793.206C587.895 788.185 588.977 783.963 589.098 783.735C589.338 783.507 589.94 791.837 590.421 802.22C591.383 821.39 590.421 844.668 588.616 851.971C588.015 854.139 587.173 858.703 586.812 862.126C585.97 867.946 586.09 868.288 587.895 866.462C590.18 864.294 598.239 848.434 598.239 846.037C598.239 845.239 599.563 840.332 601.126 835.311C604.735 823.558 606.178 799.71 604.374 777.802C603.773 769.358 603.412 762.169 603.773 761.827C605.096 760.571 615.08 776.432 615.08 779.855C615.08 780.54 615.681 781.225 616.283 781.225C618.087 781.225 617.726 770.841 615.801 763.881C614.839 760.571 611.952 751.899 609.306 744.711C601.367 722.346 598.48 712.418 594.511 693.477C592.826 685.033 592.345 655.936 593.909 653.539C595.473 651.257 598.239 655.023 598.239 659.245C598.239 661.07 598.721 663.581 599.322 665.064C605.818 680.811 607.261 681.267 605.938 666.776C604.494 652.627 604.855 639.504 606.66 636.195L608.223 633.571L612.794 638.477C615.32 641.102 617.967 645.21 618.809 647.492C620.613 653.197 621.936 654.224 624.101 652.284C626.627 649.774 628.191 636.994 626.988 628.892C625.665 621.361 622.898 617.938 620.493 621.019C619.41 622.502 618.448 622.046 614.238 617.71C609.065 612.347 605.697 604.816 607.141 601.393C607.862 599.681 608.223 599.681 611.23 602.305C619.771 609.836 622.898 608.467 618.327 599.225C614.839 592.264 612.313 583.706 612.915 580.853C613.275 579.142 613.757 579.256 617.485 582.337C619.771 584.277 623.38 586.673 625.545 587.7C629.634 589.64 639.137 590.21 639.137 588.499C639.137 587.928 636.13 585.075 632.521 582.109C623.74 575.034 623.62 572.752 632.281 576.061C645.272 580.967 658.143 582.793 659.225 579.712C659.466 578.914 656.338 576.517 652.128 574.349C643.347 569.671 634.927 562.14 638.415 562.14C639.618 562.14 644.55 563.509 649.241 565.107C660.067 568.872 673.058 569.443 677.99 566.362C682.441 563.623 682.08 562.14 676.787 562.14C670.292 562.026 664.999 559.972 655.617 553.81C651.046 550.843 646.595 548.447 645.633 548.447C644.55 548.447 643.949 547.762 644.31 546.964C645.152 544.796 654.293 545.594 664.879 548.903C676.186 552.441 689.417 552.897 695.552 550.045C700.243 547.877 699.642 547.078 690.861 544.453C687.252 543.312 682.922 541.487 681.238 540.46C679.554 539.319 674.021 536.352 668.969 533.727C663.796 531.217 660.188 528.821 660.789 528.478C661.39 528.136 667.405 529.163 674.261 530.646C681.118 532.244 688.936 534.07 691.823 534.754C697.717 536.124 706.498 536.238 706.498 534.982C706.498 534.07 688.455 524.142 680.636 520.719C672.697 517.182 661.872 514.329 653.812 513.53C649.723 513.074 645.994 512.389 645.753 511.933C645.392 511.362 648.399 508.167 652.489 504.63C660.067 497.898 660.789 495.616 654.534 496.757C645.753 498.468 657.541 488.541 672.818 481.352L681.839 477.244L711.911 476.446C735.608 475.875 743.667 475.305 749.802 473.707C757.139 471.653 764.357 467.774 767.484 464.008C769.048 462.068 767.364 460.927 765.078 462.639C761.71 465.149 752.087 466.518 741.742 465.948C730.195 465.377 708.904 462.182 707.34 460.699C705.897 459.33 727.067 453.624 744.389 450.772L749.2 449.973L745.592 448.946C743.667 448.261 732.48 447.805 720.933 447.691C699.401 447.691 698.198 447.805 679.193 453.51C677.028 454.195 675.223 454.309 675.223 453.738C675.223 452.712 684.365 444.724 696.033 435.481C710.468 424.071 704.694 424.071 684.004 435.367C677.148 439.133 671.615 441.871 671.615 441.529C671.615 441.187 673.66 438.22 676.306 435.025C683.283 426.239 683.403 425.896 679.313 426.809C677.389 427.266 672.457 429.89 668.367 432.743C664.277 435.481 660.669 437.764 660.308 437.764C658.985 437.764 662.112 430.347 665.119 426.581C673.78 415.969 681.839 411.633 699.882 408.21C720.572 404.216 745.111 393.148 754.493 383.677C759.064 379.113 756.538 378.77 747.877 382.764C740.54 386.187 736.57 387.214 736.57 385.731C736.57 385.389 737.653 383.791 738.976 382.194C741.382 379.227 742.103 376.146 740.419 376.146C739.938 376.146 737.532 377.515 735.247 379.113C729.473 383.221 723.098 386.187 714.678 388.812C704.453 391.893 703.371 391.664 707.581 387.214C713.715 381.167 712.272 380.254 703.13 384.59C700.003 386.073 694.59 387.899 691.101 388.698C683.644 390.295 666.924 397.826 664.518 400.565C662.353 402.961 660.789 402.847 660.789 400.337C660.909 397.256 668.728 387.899 674.983 383.677C682.32 378.542 684.606 377.515 700.484 372.152C716.963 366.561 719.128 365.762 726.947 361.654C741.983 353.895 751.486 345.223 757.019 334.383C760.507 327.651 761.831 320.234 759.665 320.234C759.064 320.234 758.102 321.375 757.38 322.744C755.576 326.624 745.231 338.263 742.464 339.746C738.976 341.458 738.254 340.202 740.9 336.665C745.231 330.731 748.719 325.368 750.884 320.804C757.26 307.682 758.703 305.286 763.033 301.52C765.68 299.238 767.965 297.412 768.326 297.412C769.168 297.412 781.197 290.338 787.813 285.888C790.579 284.176 793.105 282.921 793.466 283.377C795.03 284.746 798.037 280.867 802.488 271.852C805.014 266.832 809.946 258.274 813.434 253.025C816.802 247.776 819.448 242.983 819.208 242.299C818.606 240.473 804.172 253.938 798.278 261.925C790.459 272.537 787.692 275.162 778.791 280.525C774.34 283.035 768.567 286.686 765.8 288.398C763.033 290.224 760.267 291.707 759.545 291.707C757.139 291.707 763.515 283.377 774.581 272.309C785.647 261.24 790.82 253.709 792.504 246.064C793.346 242.071 793.346 242.071 791.06 244.353C789.858 245.608 787.331 248.575 785.407 250.971C783.482 253.367 776.746 258.502 770.371 262.496C763.996 266.489 757.26 271.054 755.215 272.765C752.448 275.047 751.486 275.39 751.245 274.02C750.644 271.624 757.5 259.985 763.033 254.052C768.807 247.776 769.409 245.494 764.597 247.434C756.418 250.743 749.2 257.247 741.141 268.886C736.931 274.819 725.504 286.458 703.611 307.111C676.667 332.443 655.015 354.009 644.189 366.219C642.024 368.843 641.062 369.185 639.137 368.158C636.25 366.675 636.01 362.111 638.536 357.889C640.821 354.237 640.821 352.184 638.536 352.184C635.288 352.184 628.913 358.802 625.304 365.762C621.455 373.521 620.733 373.75 612.433 368.615C601.968 362.225 603.652 343.055 615.801 330.617C625.424 320.69 635.047 304.829 637.333 295.244C638.536 289.881 635.649 291.707 631.439 298.896C629.274 302.433 621.455 310.877 612.073 319.663C603.292 327.765 595.353 336.094 594.27 338.148C593.187 340.088 591.864 344.652 591.503 348.076C591.022 351.613 590.3 354.808 589.819 355.036C588.496 355.835 575.265 343.283 570.814 337.121C568.649 334.155 565.401 327.993 563.597 323.429C561.792 318.864 559.747 315.099 559.266 315.099C557.943 315.099 556.861 317.039 554.455 323.657C550.966 333.128 543.749 343.169 535.93 349.559C531.72 352.868 527.751 355.379 527.149 355.036C526.548 354.58 526.067 351.499 526.067 348.076C526.067 340.316 523.3 334.839 516.203 328.678C497.559 312.132 493.108 307.682 488.537 300.95C485.65 296.842 482.643 292.734 481.681 291.821C480.358 290.338 480.237 290.68 480.959 294.103C483.605 305.4 491.544 319.093 502.009 330.047C506.701 334.953 509.467 338.947 510.55 342.713C512.835 350.13 512.715 361.198 510.309 364.393C507.663 367.93 503.212 371.125 499.483 371.924C496.596 372.609 496.115 372.038 492.507 365.306C488.537 358.003 482.884 352.184 479.636 352.184C477.591 352.184 477.591 353.096 479.756 356.748C482.042 360.513 482.042 366.333 479.756 368.158C477.711 369.756 478.674 370.669 452.571 343.626C442.828 333.584 426.95 318.18 417.086 309.394C395.314 289.995 383.165 277.444 376.91 268.087C371.858 260.556 360.19 250.058 354.176 247.662C349.124 245.608 349.364 247.434 355.138 253.938C360.671 260.214 367.287 271.168 367.287 274.02C367.287 275.732 366.806 275.618 363.438 272.993C361.273 271.282 354.176 266.604 347.801 262.496C339.381 257.247 334.689 253.367 331.321 248.803C326.269 242.071 324.104 242.299 326.63 249.259C329.156 256.448 333.486 262.153 344.312 272.879C354.537 282.921 361.273 291.707 358.747 291.707C358.025 291.707 355.259 290.224 352.492 288.398C349.725 286.686 343.952 283.035 339.501 280.525C330.72 275.162 327.713 272.423 320.495 262.61C312.797 252.226 298.723 239.104 298.723 242.299ZM406.02 325.825C406.982 338.148 417.327 346.364 429.837 344.767C434.769 344.082 436.092 344.424 438.137 346.364C442.708 350.7 441.505 351.385 430.198 350.814C412.395 349.787 401.088 343.055 397.479 331.53C395.555 325.483 394.472 316.24 395.435 313.958C396.036 312.36 396.758 312.589 400.848 315.555C405.178 318.75 405.539 319.549 406.02 325.825ZM723.339 318.18C723.339 325.825 719.85 335.638 715.4 340.545C709.265 347.391 692.545 352.526 680.997 351.271C676.787 350.814 676.787 349.445 680.757 345.908C683.403 343.626 684.245 343.397 687.373 344.424C698.68 348.19 712.513 337.464 712.513 324.912C712.513 319.777 712.873 318.978 716.963 315.898C719.489 313.958 721.895 312.703 722.376 313.045C722.978 313.273 723.339 315.669 723.339 318.18ZM568.168 384.248C577.189 387.443 585.008 393.148 592.225 401.82C598.721 409.465 599.442 413.002 594.992 413.573C592.225 413.915 592.345 417.224 595.112 417.224C595.954 417.224 598.36 418.936 600.525 421.104L604.374 424.869L599.563 426.695C596.916 427.722 594.15 429.548 593.548 430.803C591.864 433.77 591.864 440.274 593.669 444.268C595.112 447.463 604.013 458.531 605.697 459.216C606.299 459.444 606.299 460.128 605.938 460.699C605.577 461.384 604.735 461.384 603.893 460.813C603.051 460.243 600.645 459.444 598.36 458.987C590.06 457.504 586.09 452.94 580.196 438.562C576.949 430.689 574.302 427.266 568.769 424.071C562.634 420.533 555.056 420.648 549.042 424.413C543.027 428.179 541.464 430.347 536.291 442.442C533.645 448.375 530.758 453.168 528.473 454.994C524.744 457.96 512.835 462.182 512.835 460.585C512.835 460.014 515 457.162 517.647 454.309C528.593 442.328 529.074 429.206 518.609 426.581C516.444 426.125 514.64 425.098 514.399 424.413C514.158 423.728 516.805 421.218 520.293 418.822C525.826 414.942 526.307 414.372 523.902 414.029C520.534 413.573 519.331 411.063 521.015 407.639C523.3 402.847 534.728 392.121 541.584 388.241C554.214 381.281 558.184 380.596 568.168 384.248ZM566.724 446.664C572.979 453.853 574.422 458.759 575.986 478.157C577.309 493.219 578.272 498.24 580.677 504.174C584.888 513.987 584.767 514.9 579.835 512.047C577.55 510.792 575.385 509.993 575.024 510.45C572.738 512.503 574.422 529.049 578.272 543.198C580.557 551.414 582.843 562.254 583.324 567.161C583.925 572.181 585.008 576.403 585.609 576.631C586.331 576.86 587.654 574.577 588.496 571.611C589.338 568.53 590.902 563.851 591.864 560.999C599.683 538.063 602.69 509.423 599.202 490.253C597.157 479.298 598.721 478.157 605.457 485.346C608.223 488.313 611.832 493.334 613.275 496.529C616.162 502.576 616.042 507.369 612.915 516.497C610.87 522.545 607.381 533.043 603.652 544.453C601.848 550.045 599.923 555.75 599.442 557.005C598.961 558.26 596.435 565.449 594.029 572.98C580.677 613.031 565.762 652.969 560.71 662.211C559.507 664.608 559.266 664.722 557.943 662.782C554.094 657.419 538.336 615.428 524.864 574.692C520.895 562.482 517.045 551.414 516.444 550.159C515.963 548.903 515.241 546.85 514.88 545.594C514.519 544.339 512.354 537.379 509.828 530.19C500.807 503.375 500.686 501.549 508.024 491.28C514.64 482.037 515.963 480.668 518.248 481.581C520.053 482.151 520.173 483.064 519.451 487.172C518.85 489.796 518.368 499.381 518.128 508.51C517.887 522.431 518.248 527.337 520.774 539.319C523.781 553.468 526.909 563.851 530.878 573.322L532.923 578.229L534.367 569.329C535.088 564.422 537.494 554.038 539.539 546.165C542.065 536.922 543.509 528.136 543.869 521.29C544.23 511.705 544.11 510.792 542.065 510.792C540.862 510.792 538.577 511.591 537.013 512.732C534.246 514.557 534.126 514.557 534.848 511.819C535.088 510.335 536.532 506.228 537.855 502.69C539.539 498.697 540.862 490.823 541.704 481.01C543.749 457.504 545.433 452.597 553.733 444.952C557.582 441.415 562.755 442.1 566.724 446.664Z" fill="black"/>
<path d="M285.494 270.942C285.494 272.996 323.745 304.832 324.948 303.691C326.512 302.322 306.424 281.326 297.643 275.278C291.749 271.171 285.494 268.888 285.494 270.942Z" fill="black"/>
<path d="M822.335 274.592C815.118 279.157 799.962 293.306 795.992 299.239C794.79 301.065 793.226 302.891 792.504 303.347C791.782 303.918 791.903 304.26 792.865 304.26C793.707 304.26 796.474 302.548 798.879 300.38C801.405 298.212 806.818 293.762 811.149 290.567C832.319 274.592 840.258 263.182 822.335 274.592Z" fill="black"/>
<path d="M840.019 290.227C838.334 291.254 836.771 292.509 836.41 292.852C835.087 294.449 827.99 298.557 818.968 303.121C808.022 308.713 799.602 315.787 798.519 320.237C798.158 321.949 796.474 325.144 794.79 327.198C791.903 330.849 791.903 331.077 794.189 331.42C796.474 331.762 805.015 328.111 811.631 323.775C821.013 317.841 836.771 300.839 842.304 290.798C843.988 287.831 843.868 287.717 840.019 290.227Z" fill="black"/>
<path d="M275.87 290.34C275.87 292.85 288.5 308.026 297.161 315.786C306.303 324.115 322.782 333.7 325.308 332.217C326.631 331.304 318.452 317.155 314.001 312.591C311.956 310.537 306.182 306.771 301.01 304.261C295.958 301.75 288.5 297.414 284.531 294.562C277.193 289.313 275.87 288.742 275.87 290.34Z" fill="black"/>
<path d="M274.666 314.643C274.787 317.952 279.357 325.597 283.808 329.591C289.221 334.383 299.686 339.632 310.873 343.055C326.871 347.848 330.119 345.908 316.887 339.404C302.573 332.443 289.582 324.912 284.049 320.462C275.147 313.273 274.666 312.931 274.666 314.643Z" fill="black"/>
<path d="M835.207 319.32C828.711 324.912 821.855 329.02 804.894 337.92C787.212 347.048 787.332 348.874 805.375 343.511C827.989 336.665 842.424 326.395 842.424 316.81C842.424 313.615 841.341 313.957 835.207 319.32Z" fill="black"/>
<path d="M271.058 368.846C260.954 372.041 255.06 375.579 257.466 377.062C259.992 378.659 272.502 376.606 283.087 372.954C288.741 370.9 294.996 369.303 297.161 369.303C301.732 369.303 303.416 367.591 299.567 366.564C293.432 364.967 279.96 366.108 271.058 368.846Z" fill="black"/>
<path d="M818.006 366.675C814.397 367.588 817.044 369.3 822.096 369.3C824.622 369.3 827.749 369.756 828.952 370.327C830.035 371.011 834.846 372.723 839.417 374.32C848.078 377.401 861.67 378.428 861.67 376.146C861.67 374.777 848.92 368.957 841.823 367.132C837.132 365.876 822.216 365.648 818.006 366.675Z" fill="black"/>
<path d="M318.21 380.941C316.406 382.653 316.285 390.412 318.09 393.493C319.653 396.346 317.488 398.171 313.88 397.144C310.993 396.232 298.723 397.715 298.723 398.97C298.723 399.427 302.452 401.252 307.023 402.85C311.474 404.561 316.165 406.615 317.368 407.414C319.413 408.783 319.172 409.126 314.962 412.891C312.436 415.059 310.752 417.455 311.113 418.026C311.594 418.711 315.925 419.281 320.856 419.281C332.885 419.281 340.343 421.107 354.056 427.383C364.16 431.947 366.445 432.632 373.302 432.632C377.632 432.632 382.444 431.833 384.128 431.034L387.014 429.437L383.526 427.953C368.971 422.02 365.363 420.308 359.228 416.428C349.966 410.723 335.05 397.144 327.352 387.445C323.863 383.109 320.736 379.572 320.375 379.572C320.014 379.572 319.052 380.143 318.21 380.941Z" fill="black"/>
<path d="M790.941 387.331C783.603 396.688 768.447 410.609 759.065 416.428C752.93 420.308 749.321 422.02 734.766 427.953L731.278 429.437L734.165 431.034C735.849 431.833 740.661 432.632 744.991 432.632C751.968 432.632 754.133 432.061 764.718 427.154C777.589 420.993 789.858 418.254 799.962 419.167C808.262 419.966 809.345 417.912 803.21 412.891C798.759 409.24 798.639 409.012 800.804 407.414C802.729 406.045 808.864 403.763 818.126 400.682C818.847 400.454 819.569 399.655 819.569 399.084C819.569 397.829 807.18 396.117 804.533 397.144C801.045 398.4 799.12 396.802 800.443 393.607C802.729 387.788 801.285 379.572 797.797 379.572C797.436 379.572 794.309 382.995 790.941 387.331Z" fill="black"/>
<path d="M346.838 387.673C349.966 393.151 363.438 403.877 372.46 408.213C381.962 412.777 393.51 414.717 394.593 411.978C394.833 411.408 388.338 407.87 380.278 404.219C366.926 398.171 350.447 388.586 349.485 386.19C349.244 385.734 348.282 385.277 347.32 385.277C345.876 385.277 345.876 385.734 346.838 387.673Z" fill="black"/>
<path d="M768.809 386.189C767.847 388.471 751.247 398.056 738.015 404.103C729.956 407.869 723.461 411.406 723.701 411.977C725.024 415.742 738.136 412.775 749.683 406.271C760.269 400.452 775.665 385.276 771.094 385.276C770.012 385.276 769.05 385.618 768.809 386.189Z" fill="black"/>
<path d="M288.861 430.804C282.967 433.086 270.217 436.053 261.676 437.194C255.301 438.107 250.008 442.899 247.964 449.517C247.242 452.142 245.317 455.907 243.754 457.847C241.227 461.042 240.145 464.009 241.588 464.009C241.829 464.009 245.317 462.069 249.166 459.673C253.136 457.277 260.594 454.082 265.766 452.598C273.104 450.544 274.667 449.746 272.863 449.061C271.54 448.605 268.894 448.148 266.969 448.148C263.962 448.034 263.721 447.806 265.044 446.208C266.969 444.154 272.382 441.872 282.727 438.791C289.824 436.623 297.522 431.945 297.522 429.663C297.522 428.18 295.237 428.522 288.861 430.804Z" fill="#5C5555"/>
<path d="M820.772 429.666C820.772 432.519 826.185 435.828 836.169 438.908C846.153 441.989 851.446 444.271 853.25 446.211C854.573 447.809 854.333 448.037 851.927 448.037C847.476 448.037 843.627 449.292 844.349 450.433C844.71 451.004 846.153 451.46 847.717 451.46C851.686 451.46 864.317 456.481 870.451 460.475C878.39 465.609 879.353 464.925 874.3 457.964C872.737 455.682 870.812 451.803 870.09 449.52C867.685 441.305 863.234 437.996 852.649 436.512C848.198 435.942 839.658 433.888 833.523 432.062C821.494 428.297 820.772 428.182 820.772 429.666Z" fill="#5C5555"/>
<path d="M238.581 432.518C228.116 435.599 226.191 436.512 215.606 443.701C205.261 450.661 201.773 455.34 197.081 467.891C194.916 473.597 192.751 479.188 192.27 480.215C191.789 481.356 191.909 482.269 192.51 482.269C194.315 482.269 198.164 477.933 204.659 468.576C214.523 454.313 227.394 444.157 246.159 435.485C252.053 432.861 253.977 431.491 252.774 430.807C250.489 429.323 248.685 429.552 238.581 432.518Z" fill="black"/>
<path d="M866 430.691C865.279 431.946 870.812 435.598 876.345 437.652C882.359 439.82 896.553 449.291 902.688 455.338C906.056 458.533 911.83 465.494 915.559 470.743C919.288 476.106 923.618 481.126 925.062 482.039C927.708 483.637 927.708 483.523 924.34 475.649C922.415 471.313 920.491 466.178 920.009 464.239C917.724 454.083 901.605 440.276 885.246 434.229C875.263 430.577 867.083 429.094 866 430.691Z" fill="black"/>
<path d="M310.152 461.156C295.597 463.667 286.696 467.204 273.946 475.648C265.405 481.239 253.016 492.65 253.016 494.932C253.016 496.073 257.226 494.133 263.24 490.368C267.811 487.401 268.894 488.998 266.608 495.16C264.924 499.953 263.12 512.847 264.563 509.766C266.969 504.745 280.201 488.656 286.215 483.521C295.838 475.077 315.084 464.009 319.775 464.009C320.617 464.009 322.181 462.982 323.384 461.727C325.549 459.445 325.429 459.445 322.061 459.559C320.136 459.673 314.843 460.358 310.152 461.156Z" fill="black"/>
<path d="M794.911 461.728C796.114 462.983 797.677 464.01 798.519 464.01C801.045 464.01 812.954 469.943 821.735 475.763C831.478 482.039 840.5 490.939 847.115 500.524C856.017 513.418 856.618 512.961 851.807 496.987C851.205 494.818 850.844 491.852 851.085 490.482C851.446 488.086 851.566 488.086 857.099 491.509C865.399 496.644 866.482 495.047 859.505 487.858C845.792 473.595 825.825 463.553 805.496 460.701C792.866 458.875 792.264 458.875 794.911 461.728Z" fill="black"/>
<path d="M322.181 473.252C303.537 479.186 292.109 487.972 278.276 507.37C271.66 516.613 263.721 530.306 264.203 531.675C264.323 532.245 267.45 530.191 271.059 526.882C274.668 523.687 278.036 521.063 278.517 521.063C281.765 521.063 274.307 536.924 264.563 550.617C257.587 560.544 256.865 562.141 259.151 562.141C261.917 562.141 283.93 550.502 293.192 544.113C303.657 536.924 307.506 534.642 308.108 535.326C308.829 536.011 305.1 542.173 300.529 547.878C298.124 550.845 296.319 553.469 296.56 553.583C297.763 554.724 307.145 549.247 311.836 544.911C319.294 537.951 323.264 532.36 328.677 521.748C333.248 512.505 337.217 497.899 335.653 496.302C335.172 495.845 328.917 500.98 321.82 507.712C314.723 514.331 306.784 521.405 304.138 523.459C295.477 529.849 289.102 532.017 289.102 528.48C289.102 525.741 295.117 509.652 298.364 503.491C302.093 496.416 312.558 486.032 322.422 479.3C332.285 472.568 332.285 470.171 322.181 473.252Z" fill="#5C5555"/>
<path d="M788.295 473.026C788.295 473.596 790.942 475.878 794.069 478.046C804.775 485.235 815.48 495.733 819.33 502.465C823.058 509.198 829.193 525.401 829.193 528.482C829.193 534.187 817.405 526.884 798.399 509.426C790.34 502.009 783.484 495.961 783.003 495.961C781.679 495.961 782.281 502.237 784.206 508.627C787.574 519.467 795.633 533.616 802.61 540.691C809.827 548.222 818.969 554.612 820.773 553.585C821.374 553.243 819.45 549.82 816.563 546.054C808.504 535.67 809.586 532.704 818.728 539.778C825.945 545.255 839.418 553.357 849.401 558.149C862.272 564.197 863.355 563.512 855.656 553.927C849.161 545.826 838.335 525.058 839.297 522.662C839.899 521.179 841.222 521.863 846.635 526.656C850.123 529.851 853.371 532.475 853.852 532.475C856.258 532.475 844.349 512.849 834.125 499.727C822.698 485.349 812.473 478.161 796.956 473.596C790.34 471.771 788.295 471.656 788.295 473.026Z" fill="#5C5555"/>
<path d="M401.33 487.402C393.992 489.342 377.273 497.9 376.31 500.296C375.588 502.236 375.348 502.35 398.804 496.074C411.795 492.651 418.772 491.396 424.786 491.396C430.56 491.396 433.567 490.94 434.529 489.799C437.777 486.147 413.359 484.321 401.33 487.402Z" fill="black"/>
<path d="M687.254 487.059C682.322 488.086 682.081 488.314 684.247 489.797C685.57 490.71 689.419 491.395 693.87 491.395C698.922 491.395 707.101 492.992 719.25 496.187C729.114 498.698 738.857 501.094 740.782 501.436L744.39 501.893L740.902 499.04C736.211 495.16 721.656 488.428 714.92 486.945C708.304 485.461 694.471 485.575 687.254 487.059Z" fill="black"/>
<path d="M414.201 505.431C404.457 508.74 402.412 509.767 391.827 516.613C382.926 522.547 376.069 528.594 377.152 529.736C377.513 530.078 384.008 528.024 391.586 525.285C404.096 520.607 412.877 517.868 423.824 515.13C426.109 514.559 433.807 513.19 440.904 512.163C448.001 511.136 453.895 509.653 454.016 509.082C454.256 506.914 442.468 503.719 432.244 503.149C423.583 502.806 420.816 503.149 414.201 505.431Z" fill="black"/>
<path d="M674.262 504.633C666.443 506.573 662.594 508.399 663.917 509.54C664.519 509.996 671.014 511.251 678.231 512.278C692.907 514.332 709.266 518.783 727.309 525.629C733.804 528.139 740.18 530.193 741.262 530.193C744.269 530.079 732 519.809 721.535 513.648C704.454 503.492 689.659 500.64 674.262 504.633Z" fill="black"/>
<path d="M337.217 544.568C330.24 551.414 321.459 556.891 305.942 564.536C295.237 569.785 293.793 570.698 296.68 571.04C298.484 571.269 302.454 570.926 305.461 570.356C311.355 569.101 312.678 569.899 310.152 573.094C306.183 578.115 309.791 578.343 318.452 573.551C329.759 567.503 339.863 555.978 342.991 545.481C345.396 537.379 344.554 537.265 337.217 544.568Z" fill="black"/>
<path d="M774.702 540.691C773.98 542.859 776.146 549.592 779.273 554.726C783.363 561.459 791.783 569.218 799.361 573.326C808.623 578.461 812.112 578.232 808.142 572.869C807.18 571.5 806.699 570.131 807.06 569.788C807.42 569.446 810.788 569.903 814.517 570.701C827.268 573.554 825.343 570.93 808.623 562.6C796.595 556.666 790.58 552.901 783.964 546.967C778.672 542.289 775.063 539.893 774.702 540.691Z" fill="black"/>
<path d="M358.267 551.073C356.342 554.268 346.118 565.109 335.533 575.15C319.534 590.668 313.159 598.085 313.159 601.509C313.159 602.992 315.926 601.851 318.933 599.112C320.737 597.515 327.834 592.494 334.811 588.044C349.967 578.117 356.222 572.525 359.831 565.223C362.958 558.833 364.281 551.187 362.838 547.65C361.996 545.482 361.515 545.71 358.267 551.073Z" fill="black"/>
<path d="M755.215 547.309C754.734 547.994 754.734 551.189 755.215 554.384C757.139 567.506 762.191 573.782 781.197 586.334C789.376 591.811 797.556 597.516 799.36 599.114C805.495 604.591 807.179 601.852 802.127 594.778C800.563 592.495 791.421 583.367 781.798 574.352C772.296 565.452 762.673 555.411 760.628 552.102C756.538 545.712 756.297 545.598 755.215 547.309Z" fill="black"/>
<path d="M392.909 571.954C380.64 577.66 365.243 593.52 358.747 607.213C355.139 614.63 356.101 615.315 361.634 609.61C366.566 604.247 375.588 597.514 379.557 596.145C382.324 595.118 382.805 597.172 381.482 604.931C379.677 614.744 383.045 635.169 386.534 635.169C387.015 635.169 388.699 631.974 390.142 627.981C394.353 617.141 403.494 600.253 411.674 588.728C421.658 574.465 421.417 571.384 410.471 577.888C407.584 579.714 404.096 582.338 402.893 583.593C398.081 588.728 397.239 585.533 400.848 576.176C404.096 567.846 402.773 567.162 392.909 571.954Z" fill="black"/>
<path d="M715.762 569.674C715.401 570.016 716.123 573.211 717.446 576.748C720.814 586.105 720.092 587.132 713.837 582.226C708.304 577.89 702.771 574.695 700.485 574.695C697.839 574.695 699.643 578.802 706.981 589.3C715.521 601.51 723.941 617.028 728.151 628.096C729.715 631.976 731.519 635.057 732.241 634.829C735.609 633.802 738.616 608.812 736.331 600.939C735.85 599.342 735.97 597.402 736.451 596.489C737.895 594.435 746.916 600.254 756.178 609.383C759.907 613.034 763.035 615.773 763.035 615.202C763.035 614.632 760.87 610.068 758.343 605.047C751.126 591.012 739.097 578.917 725.144 571.956C719.37 568.989 717.085 568.419 715.762 569.674Z" fill="black"/>
<path d="M419.735 588.388C412.036 596.49 405.661 611.894 403.857 626.842C403.376 630.037 403.376 633.574 403.857 634.716C404.458 636.313 405.06 636.085 408.067 633.232C409.871 631.292 412.518 629.124 413.72 628.211C418.652 624.788 419.494 622.506 420.216 610.753C420.697 604.363 422.02 596.49 423.103 593.181C426.351 584.052 425.268 582.569 419.735 588.388Z" fill="black"/>
<path d="M693.267 587.132C693.267 588.273 694.109 591.125 695.072 593.293C696.154 595.69 696.876 600.939 696.876 605.503C696.876 616.343 698.8 622.961 702.89 626.613C704.815 628.21 708.063 631.063 710.107 632.888C715.039 637.339 715.761 635.399 713.716 623.303C711.19 608.241 706.258 596.602 699.161 588.957C694.951 584.507 693.267 583.937 693.267 587.132Z" fill="black"/>
<path d="M251.572 589.414C240.385 594.777 235.092 601.052 232.686 612.121C229.92 624.901 231.243 625.243 239.182 613.49C242.069 609.154 248.564 601.851 253.496 597.173C258.548 592.494 262.638 588.387 262.638 587.93C262.638 586.561 255.902 587.36 251.572 589.414Z" fill="black"/>
<path d="M855.657 588.044C855.657 588.501 859.626 592.494 864.438 596.945C872.016 603.905 882.12 616.343 883.564 620.565C884.406 622.847 886.932 620.336 886.45 617.712C883.684 604.019 882.722 601.737 878.03 597.059C875.264 594.434 870.572 591.125 867.445 589.756C861.791 587.36 855.657 586.447 855.657 588.044Z" fill="black"/>
<path d="M431.763 604.019C430.56 617.142 428.756 625.015 424.185 636.197C421.9 642.131 419.133 648.179 418.291 649.776C417.449 651.374 416.968 653.085 417.329 653.656C418.291 655.139 426.11 648.977 429.959 643.5C432.004 640.762 434.049 638.594 434.53 638.594C436.214 638.594 437.056 643.158 437.056 651.602C437.056 659.361 437.056 659.475 439.221 656.737C443.672 651.259 444.874 646.239 444.874 634.029C444.874 627.183 444.153 619.652 443.19 616.343C440.785 608.355 436.575 599.455 434.289 597.743C432.605 596.374 432.365 597.173 431.763 604.019Z" fill="black"/>
<path d="M680.516 602.879C673.299 618.283 670.532 631.748 672.818 640.991C674.622 648.978 677.75 656.851 678.832 656.851C679.434 656.851 680.155 654.798 680.516 652.287C680.877 649.777 681.599 645.669 681.96 643.159C682.32 640.648 683.162 638.594 683.644 638.594C684.245 638.594 686.41 640.762 688.335 643.387C692.425 648.864 700.003 655.026 700.965 653.656C701.206 653.2 700.123 650.233 698.559 647.152C692.184 634.601 687.854 619.881 686.531 606.302C686.049 601.396 685.207 597.174 684.606 596.831C684.125 596.489 682.2 599.228 680.516 602.879Z" fill="black"/>
<path d="M460.27 600.597C459.188 600.939 458.707 603.906 458.707 609.839C458.707 618.283 456.06 647.951 454.376 659.476C453.655 664.04 453.895 664.839 455.459 664.268C457.865 663.355 461.834 654.455 464.841 643.501C466.044 638.708 467.367 634.6 467.608 634.258C468.931 633.117 470.495 635.513 471.217 639.735C471.818 643.387 472.419 644.414 473.983 644.071C475.427 643.843 476.87 640.99 478.554 635.057C479.998 630.264 482.283 624.217 483.726 621.592C485.17 618.968 486.373 616.115 486.373 615.316C486.373 613.377 482.283 614.175 480.238 616.457C477.471 619.652 474.705 618.055 469.051 609.497C462.917 600.254 462.436 599.798 460.27 600.597Z" fill="black"/>
<path d="M649.964 608.584C646.596 613.491 643.348 617.598 642.747 617.827C642.145 618.055 640.341 617.37 638.897 616.457C635.77 614.403 631.921 614.061 631.921 615.773C631.921 616.457 633.124 619.196 634.567 621.82C636.011 624.445 638.296 630.492 639.739 635.171C642.747 645.555 645.393 646.924 647.438 639.279C649.002 633.345 650.806 631.634 651.648 635.399C653.933 646.467 655.617 651.944 658.865 658.106C662.594 665.409 666.804 668.946 665.12 663.583C663.556 658.449 661.872 643.729 660.429 622.163C659.467 607.215 658.504 600.368 657.542 600.14C656.7 599.798 653.332 603.677 649.964 608.584Z" fill="black"/>
<path d="M328.195 646.24C320.737 660.161 316.527 667.008 315.084 667.122C314.482 667.122 314.482 664.497 314.963 661.074C317.489 645.099 315.084 637.34 311.355 649.664C308.468 659.249 303.295 669.404 297.882 676.365C292.951 682.755 290.184 687.889 287.297 695.763C283.448 705.918 285.493 707.059 296.439 700.669C311.475 692.111 322.902 678.533 329.638 661.531C333.247 652.516 336.495 637.454 335.051 636.085C334.57 635.628 331.443 640.193 328.195 646.24Z" fill="black"/>
<path d="M783.483 639.963C783.483 655.482 795.632 680.357 808.503 691.197C819.088 700.098 831.839 707.172 833.282 705.004C834.605 702.95 826.666 684.921 821.013 677.048C813.314 666.322 810.427 660.959 807.781 651.602C806.578 647.38 805.015 643.729 804.293 643.501C802.488 642.93 801.646 649.777 802.849 656.281C803.33 659.362 803.812 663.241 803.812 664.839C803.932 667.577 803.932 667.577 801.646 665.409C800.323 664.154 795.752 656.737 791.422 648.864L783.483 634.6V639.963Z" fill="black"/>
<path d="M479.516 672.025C471.938 681.61 470.976 685.148 467.127 717.212C464.841 735.811 462.556 733.415 462.435 712.647C462.315 691.538 459.428 692.565 450.767 716.641C447.881 724.629 445.475 733.415 443.189 744.483C441.626 751.558 441.505 779.97 442.949 782.138C444.753 784.877 446.317 781.111 447.279 772.439C448.241 762.968 450.888 753.498 451.85 756.122C452.211 757.035 453.414 765.25 454.496 774.379C455.699 783.508 457.143 791.951 457.864 793.207C459.067 795.375 459.188 795.375 459.909 792.636C460.39 791.039 461.473 786.474 462.315 782.367C464.961 768.788 473.141 746.993 475.547 746.993C477.832 746.993 479.155 755.323 479.155 769.815C479.155 778.373 479.516 785.79 479.997 786.132C480.839 787.045 488.297 776.319 492.868 767.761C496.838 760.116 500.446 750.074 502.611 740.147C504.777 730.676 505.258 706.942 503.453 702.492L502.25 699.639L501.408 703.062C498.401 715.5 492.267 731.018 490.342 731.018C489.5 731.018 488.658 728.736 488.177 725.541C487.816 722.575 486.613 715.5 485.651 709.909C482.644 692.108 482.403 684.349 484.448 675.905C486.733 666.548 486.733 667.119 484.929 667.119C484.087 667.119 481.681 669.401 479.516 672.025Z" fill="black"/>
<path d="M632.402 670.201C635.89 684.579 635.65 692.68 630.958 718.925C629.034 729.765 626.989 733.53 625.545 729.08C625.185 727.939 623.26 722.69 621.215 717.327C619.17 711.964 617.607 706.487 617.486 705.004C617.486 701.01 615.321 702.037 613.998 706.715C611.592 714.931 613.276 732.503 617.967 749.505C621.456 761.829 634.687 785.791 638.055 785.791C638.657 785.791 639.138 779.858 639.138 772.212C639.138 748.25 641.303 742.202 646.355 752.472C651.287 762.399 658.264 787.046 658.384 794.691C658.384 796.175 658.865 797.088 659.467 796.745C660.669 795.947 662.353 786.59 664.398 769.816C665.842 757.607 666.684 753.385 667.406 754.069C668.368 754.982 671.616 772.669 671.616 777.233C671.616 779.743 672.097 782.482 672.698 783.281C675.946 788.187 677.75 762.627 675.224 746.995C672.698 731.248 667.887 715.273 661.872 702.836C658.023 694.848 656.82 697.016 656.459 712.306C656.339 719.723 655.617 727.14 655.016 728.738C654.054 731.362 653.813 731.02 652.49 725.315C651.648 721.891 650.565 713.105 649.964 705.916C648.761 691.311 646.957 684.579 642.145 676.705C637.935 669.859 635.409 667.12 633.364 667.12C632.161 667.12 631.8 668.033 632.402 670.201Z" fill="black"/>
<path d="M417.93 701.008C414.923 706.828 412.397 713.674 411.194 719.265C410.713 721.319 410.112 723.031 409.63 723.031C409.149 723.031 406.864 720.863 404.578 718.238C402.173 715.614 399.647 713.902 398.925 714.244C398.083 714.815 397.842 718.809 398.203 726.226C398.805 736.952 398.684 737.75 393.271 753.839C387.257 771.64 385.573 782.823 387.377 793.777C388.821 802.791 391.106 801.993 393.993 791.609C396.88 780.883 403.135 765.25 405.541 762.74C408.548 759.431 409.751 761.599 408.909 768.787C408.428 773.808 408.668 775.52 409.751 775.52C413.48 775.406 418.291 769.13 420.697 761.256C422.261 756.35 422.621 749.503 422.381 725.427C422.14 708.996 421.779 695.645 421.419 695.645C421.058 695.645 419.494 698.041 417.93 701.008Z" fill="#5C5555"/>
<path d="M696.515 696.446C696.275 696.902 695.914 710.595 695.793 726.912C695.673 751.902 695.914 757.265 697.718 762.628C699.763 768.904 706.86 777.348 709.025 775.978C709.747 775.636 710.108 772.441 709.867 769.018C708.905 752.815 717.445 767.192 725.625 795.719C727.67 802.793 730.196 801.082 731.278 791.839C732.481 780.543 731.038 771.756 725.023 753.728C719.61 737.753 719.49 736.954 720.092 726.228C720.452 719.61 720.212 714.817 719.49 714.361C718.889 714.018 716.363 715.73 713.837 718.354C709.025 723.375 707.702 723.946 707.702 721.435C707.702 715.958 697.959 694.05 696.515 696.446Z" fill="#5C5555"/>
</svg>
